<?xml version="1.0" encoding="UTF-8" standalone="no"?>
<!DOCTYPE svg PUBLIC "-//W3C//DTD SVG 1.1//EN"
 "http://www.w3.org/Graphics/SVG/1.1/DTD/svg11.dtd">
<!-- Generated by graphviz version 2.43.0 (0)
 -->
<!-- Title: %3 Pages: 1 -->
<svg width="2529pt" height="476pt"
 viewBox="0.00 0.00 2528.50 476.00" xmlns="http://www.w3.org/2000/svg" xmlns:xlink="http://www.w3.org/1999/xlink">
<g id="graph0" class="graph" transform="scale(1 1) rotate(0) translate(4 472)">
<title>%3</title>
<polygon fill="white" stroke="transparent" points="-4,4 -4,-472 2524.5,-472 2524.5,4 -4,4"/>
<!-- [root] aws_dynamodb_table.mytable (expand) -->
<g id="node1" class="node">
<title>[root] aws_dynamodb_table.mytable (expand)</title>
<polygon fill="none" stroke="black" points="230,-324 0,-324 0,-288 230,-288 230,-324"/>
<text text-anchor="middle" x="115" y="-302.3" font-family="Times,serif" font-size="14.00">aws_dynamodb_table.mytable</text>
</g>
<!-- [root] provider[&quot;registry.terraform.io/hashicorp/aws&quot;] -->
<g id="node24" class="node">
<title>[root] provider[&quot;registry.terraform.io/hashicorp/aws&quot;]</title>
<polygon fill="none" stroke="black" points="527,-36 201.74,-18 527,0 852.26,-18 527,-36"/>
<text text-anchor="middle" x="527" y="-14.3" font-family="Times,serif" font-size="14.00">provider[&quot;registry.terraform.io/hashicorp/aws&quot;]</text>
</g>
<!-- [root] aws_dynamodb_table.mytable (expand)&#45;&gt;[root] provider[&quot;registry.terraform.io/hashicorp/aws&quot;] -->
<g id="edge1" class="edge">
<title>[root] aws_dynamodb_table.mytable (expand)&#45;&gt;[root] provider[&quot;registry.terraform.io/hashicorp/aws&quot;]</title>
<path fill="none" stroke="black" d="M139.54,-287.97C210.6,-238.64 416.49,-95.71 495.56,-40.82"/>
<polygon fill="black" stroke="black" points="497.9,-43.46 504.12,-34.88 493.91,-37.71 497.9,-43.46"/>
</g>
<!-- [root] aws_eip.mainEIP (expand) -->
<g id="node2" class="node">
<title>[root] aws_eip.mainEIP (expand)</title>
<polygon fill="none" stroke="black" points="837,-108 699,-108 699,-72 837,-72 837,-108"/>
<text text-anchor="middle" x="768" y="-86.3" font-family="Times,serif" font-size="14.00">aws_eip.mainEIP</text>
</g>
<!-- [root] aws_eip.mainEIP (expand)&#45;&gt;[root] provider[&quot;registry.terraform.io/hashicorp/aws&quot;] -->
<g id="edge2" class="edge">
<title>[root] aws_eip.mainEIP (expand)&#45;&gt;[root] provider[&quot;registry.terraform.io/hashicorp/aws&quot;]</title>
<path fill="none" stroke="black" d="M709.35,-71.97C672.01,-61.12 623.78,-47.11 586.31,-36.23"/>
<polygon fill="black" stroke="black" points="587.12,-32.82 576.54,-33.39 585.16,-39.54 587.12,-32.82"/>
</g>
<!-- [root] aws_instance.bastion (expand) -->
<g id="node3" class="node">
<title>[root] aws_instance.bastion (expand)</title>
<polygon fill="none" stroke="black" points="1769,-324 1601,-324 1601,-288 1769,-288 1769,-324"/>
<text text-anchor="middle" x="1685" y="-302.3" font-family="Times,serif" font-size="14.00">aws_instance.bastion</text>
</g>
<!-- [root] aws_security_group.first&#45;security&#45;group (expand) -->
<g id="node17" class="node">
<title>[root] aws_security_group.first&#45;security&#45;group (expand)</title>
<polygon fill="none" stroke="black" points="1834,-180 1534,-180 1534,-144 1834,-144 1834,-180"/>
<text text-anchor="middle" x="1684" y="-158.3" font-family="Times,serif" font-size="14.00">aws_security_group.first&#45;security&#45;group</text>
</g>
<!-- [root] aws_instance.bastion (expand)&#45;&gt;[root] aws_security_group.first&#45;security&#45;group (expand) -->
<g id="edge3" class="edge">
<title>[root] aws_instance.bastion (expand)&#45;&gt;[root] aws_security_group.first&#45;security&#45;group (expand)</title>
<path fill="none" stroke="black" d="M1684.88,-287.87C1684.71,-263.67 1684.4,-219.21 1684.19,-190.39"/>
<polygon fill="black" stroke="black" points="1687.69,-190.16 1684.12,-180.19 1680.69,-190.21 1687.69,-190.16"/>
</g>
<!-- [root] aws_subnet.public&#45;1 (expand) -->
<g id="node21" class="node">
<title>[root] aws_subnet.public&#45;1 (expand)</title>
<polygon fill="none" stroke="black" points="2012.5,-180 1851.5,-180 1851.5,-144 2012.5,-144 2012.5,-180"/>
<text text-anchor="middle" x="1932" y="-158.3" font-family="Times,serif" font-size="14.00">aws_subnet.public&#45;1</text>
</g>
<!-- [root] aws_instance.bastion (expand)&#45;&gt;[root] aws_subnet.public&#45;1 (expand) -->
<g id="edge4" class="edge">
<title>[root] aws_instance.bastion (expand)&#45;&gt;[root] aws_subnet.public&#45;1 (expand)</title>
<path fill="none" stroke="black" d="M1714.79,-287.87C1759.49,-262.18 1843.9,-213.65 1893.3,-185.25"/>
<polygon fill="black" stroke="black" points="1895.18,-188.21 1902.1,-180.19 1891.69,-182.14 1895.18,-188.21"/>
</g>
<!-- [root] aws_instance.private (expand) -->
<g id="node4" class="node">
<title>[root] aws_instance.private (expand)</title>
<polygon fill="none" stroke="black" points="1583.5,-324 1416.5,-324 1416.5,-288 1583.5,-288 1583.5,-324"/>
<text text-anchor="middle" x="1500" y="-302.3" font-family="Times,serif" font-size="14.00">aws_instance.private</text>
</g>
<!-- [root] aws_security_group.second&#45;security&#45;group (expand) -->
<g id="node18" class="node">
<title>[root] aws_security_group.second&#45;security&#45;group (expand)</title>
<polygon fill="none" stroke="black" points="1516,-180 1196,-180 1196,-144 1516,-144 1516,-180"/>
<text text-anchor="middle" x="1356" y="-158.3" font-family="Times,serif" font-size="14.00">aws_security_group.second&#45;security&#45;group</text>
</g>
<!-- [root] aws_instance.private (expand)&#45;&gt;[root] aws_security_group.second&#45;security&#45;group (expand) -->
<g id="edge5" class="edge">
<title>[root] aws_instance.private (expand)&#45;&gt;[root] aws_security_group.second&#45;security&#45;group (expand)</title>
<path fill="none" stroke="black" d="M1487.68,-287.94C1473.78,-269.26 1449.97,-238.9 1426,-216 1414.91,-205.41 1401.73,-194.96 1389.81,-186.17"/>
<polygon fill="black" stroke="black" points="1391.56,-183.12 1381.41,-180.09 1387.46,-188.79 1391.56,-183.12"/>
</g>
<!-- [root] aws_subnet.private&#45;1 (expand) -->
<g id="node19" class="node">
<title>[root] aws_subnet.private&#45;1 (expand)</title>
<polygon fill="none" stroke="black" points="1417.5,-252 1248.5,-252 1248.5,-216 1417.5,-216 1417.5,-252"/>
<text text-anchor="middle" x="1333" y="-230.3" font-family="Times,serif" font-size="14.00">aws_subnet.private&#45;1</text>
</g>
<!-- [root] aws_instance.private (expand)&#45;&gt;[root] aws_subnet.private&#45;1 (expand) -->
<g id="edge6" class="edge">
<title>[root] aws_instance.private (expand)&#45;&gt;[root] aws_subnet.private&#45;1 (expand)</title>
<path fill="none" stroke="black" d="M1459.15,-287.88C1436.22,-278.26 1407.42,-266.19 1383.13,-256.01"/>
<polygon fill="black" stroke="black" points="1384.3,-252.71 1373.72,-252.07 1381.59,-259.16 1384.3,-252.71"/>
</g>
<!-- [root] aws_internet_gateway.mainIGW (expand) -->
<g id="node5" class="node">
<title>[root] aws_internet_gateway.mainIGW (expand)</title>
<polygon fill="none" stroke="black" points="2461,-180 2217,-180 2217,-144 2461,-144 2461,-180"/>
<text text-anchor="middle" x="2339" y="-158.3" font-family="Times,serif" font-size="14.00">aws_internet_gateway.mainIGW</text>
</g>
<!-- [root] aws_vpc.mainVPC (expand) -->
<g id="node23" class="node">
<title>[root] aws_vpc.mainVPC (expand)</title>
<polygon fill="none" stroke="black" points="1593,-108 1447,-108 1447,-72 1593,-72 1593,-108"/>
<text text-anchor="middle" x="1520" y="-86.3" font-family="Times,serif" font-size="14.00">aws_vpc.mainVPC</text>
</g>
<!-- [root] aws_internet_gateway.mainIGW (expand)&#45;&gt;[root] aws_vpc.mainVPC (expand) -->
<g id="edge7" class="edge">
<title>[root] aws_internet_gateway.mainIGW (expand)&#45;&gt;[root] aws_vpc.mainVPC (expand)</title>
<path fill="none" stroke="black" d="M2216.78,-150.3C2192.66,-148.2 2167.53,-146.03 2144,-144 1950.33,-127.33 1722.82,-108.1 1603.2,-98.01"/>
<polygon fill="black" stroke="black" points="1603.27,-94.5 1593.02,-97.15 1602.69,-101.48 1603.27,-94.5"/>
</g>
<!-- [root] aws_key_pair.myKey (expand) -->
<g id="node6" class="node">
<title>[root] aws_key_pair.myKey (expand)</title>
<polygon fill="none" stroke="black" points="410,-324 248,-324 248,-288 410,-288 410,-324"/>
<text text-anchor="middle" x="329" y="-302.3" font-family="Times,serif" font-size="14.00">aws_key_pair.myKey</text>
</g>
<!-- [root] aws_key_pair.myKey (expand)&#45;&gt;[root] provider[&quot;registry.terraform.io/hashicorp/aws&quot;] -->
<g id="edge8" class="edge">
<title>[root] aws_key_pair.myKey (expand)&#45;&gt;[root] provider[&quot;registry.terraform.io/hashicorp/aws&quot;]</title>
<path fill="none" stroke="black" d="M340.79,-287.97C374.3,-239.57 470.19,-101.06 509.68,-44.02"/>
<polygon fill="black" stroke="black" points="512.7,-45.8 515.52,-35.59 506.95,-41.82 512.7,-45.8"/>
</g>
<!-- [root] aws_nat_gateway.mainNAT (expand) -->
<g id="node7" class="node">
<title>[root] aws_nat_gateway.mainNAT (expand)</title>
<polygon fill="none" stroke="black" points="1023.5,-252 814.5,-252 814.5,-216 1023.5,-216 1023.5,-252"/>
<text text-anchor="middle" x="919" y="-230.3" font-family="Times,serif" font-size="14.00">aws_nat_gateway.mainNAT</text>
</g>
<!-- [root] aws_nat_gateway.mainNAT (expand)&#45;&gt;[root] aws_eip.mainEIP (expand) -->
<g id="edge9" class="edge">
<title>[root] aws_nat_gateway.mainNAT (expand)&#45;&gt;[root] aws_eip.mainEIP (expand)</title>
<path fill="none" stroke="black" d="M916.24,-215.86C912.26,-196.25 903.19,-164.25 884,-144 871.09,-130.37 854,-119.96 836.92,-112.12"/>
<polygon fill="black" stroke="black" points="838.03,-108.79 827.46,-108.03 835.25,-115.21 838.03,-108.79"/>
</g>
<!-- [root] aws_nat_gateway.mainNAT (expand)&#45;&gt;[root] aws_subnet.public&#45;1 (expand) -->
<g id="edge10" class="edge">
<title>[root] aws_nat_gateway.mainNAT (expand)&#45;&gt;[root] aws_subnet.public&#45;1 (expand)</title>
<path fill="none" stroke="black" d="M1023.62,-216.97C1026.78,-216.62 1029.91,-216.3 1033,-216 1388.36,-181.7 1483.33,-221.17 1840.95,-180.15"/>
<polygon fill="black" stroke="black" points="1841.54,-183.6 1851.07,-178.97 1840.73,-176.65 1841.54,-183.6"/>
</g>
<!-- [root] aws_route.private (expand) -->
<g id="node8" class="node">
<title>[root] aws_route.private (expand)</title>
<polygon fill="none" stroke="black" points="1093.5,-324 948.5,-324 948.5,-288 1093.5,-288 1093.5,-324"/>
<text text-anchor="middle" x="1021" y="-302.3" font-family="Times,serif" font-size="14.00">aws_route.private</text>
</g>
<!-- [root] aws_route.private (expand)&#45;&gt;[root] aws_nat_gateway.mainNAT (expand) -->
<g id="edge11" class="edge">
<title>[root] aws_route.private (expand)&#45;&gt;[root] aws_nat_gateway.mainNAT (expand)</title>
<path fill="none" stroke="black" d="M996.05,-287.88C982.96,-278.89 966.74,-267.76 952.56,-258.03"/>
<polygon fill="black" stroke="black" points="954.27,-254.96 944.05,-252.19 950.31,-260.73 954.27,-254.96"/>
</g>
<!-- [root] aws_route_table.private (expand) -->
<g id="node10" class="node">
<title>[root] aws_route_table.private (expand)</title>
<polygon fill="none" stroke="black" points="1230,-252 1042,-252 1042,-216 1230,-216 1230,-252"/>
<text text-anchor="middle" x="1136" y="-230.3" font-family="Times,serif" font-size="14.00">aws_route_table.private</text>
</g>
<!-- [root] aws_route.private (expand)&#45;&gt;[root] aws_route_table.private (expand) -->
<g id="edge12" class="edge">
<title>[root] aws_route.private (expand)&#45;&gt;[root] aws_route_table.private (expand)</title>
<path fill="none" stroke="black" d="M1049.13,-287.88C1064.17,-278.72 1082.87,-267.34 1099.06,-257.48"/>
<polygon fill="black" stroke="black" points="1101.04,-260.38 1107.76,-252.19 1097.4,-254.4 1101.04,-260.38"/>
</g>
<!-- [root] aws_route.public (expand) -->
<g id="node9" class="node">
<title>[root] aws_route.public (expand)</title>
<polygon fill="none" stroke="black" points="2520.5,-324 2383.5,-324 2383.5,-288 2520.5,-288 2520.5,-324"/>
<text text-anchor="middle" x="2452" y="-302.3" font-family="Times,serif" font-size="14.00">aws_route.public</text>
</g>
<!-- [root] aws_route.public (expand)&#45;&gt;[root] aws_internet_gateway.mainIGW (expand) -->
<g id="edge13" class="edge">
<title>[root] aws_route.public (expand)&#45;&gt;[root] aws_internet_gateway.mainIGW (expand)</title>
<path fill="none" stroke="black" d="M2438.37,-287.87C2418.6,-263.03 2381.85,-216.85 2359.01,-188.14"/>
<polygon fill="black" stroke="black" points="2361.64,-185.83 2352.68,-180.19 2356.17,-190.19 2361.64,-185.83"/>
</g>
<!-- [root] aws_route_table.public (expand) -->
<g id="node11" class="node">
<title>[root] aws_route_table.public (expand)</title>
<polygon fill="none" stroke="black" points="2317,-252 2137,-252 2137,-216 2317,-216 2317,-252"/>
<text text-anchor="middle" x="2227" y="-230.3" font-family="Times,serif" font-size="14.00">aws_route_table.public</text>
</g>
<!-- [root] aws_route.public (expand)&#45;&gt;[root] aws_route_table.public (expand) -->
<g id="edge14" class="edge">
<title>[root] aws_route.public (expand)&#45;&gt;[root] aws_route_table.public (expand)</title>
<path fill="none" stroke="black" d="M2397.25,-287.97C2365.4,-278.06 2325.08,-265.51 2291.67,-255.12"/>
<polygon fill="black" stroke="black" points="2292.59,-251.74 2282,-252.11 2290.51,-258.42 2292.59,-251.74"/>
</g>
<!-- [root] aws_route_table.private (expand)&#45;&gt;[root] aws_vpc.mainVPC (expand) -->
<g id="edge15" class="edge">
<title>[root] aws_route_table.private (expand)&#45;&gt;[root] aws_vpc.mainVPC (expand)</title>
<path fill="none" stroke="black" d="M1138.68,-215.88C1142.85,-195.36 1152.95,-161.55 1176,-144 1215.87,-113.65 1348.47,-100.38 1436.91,-94.8"/>
<polygon fill="black" stroke="black" points="1437.17,-98.29 1446.93,-94.18 1436.74,-91.3 1437.17,-98.29"/>
</g>
<!-- [root] aws_route_table.public (expand)&#45;&gt;[root] aws_vpc.mainVPC (expand) -->
<g id="edge16" class="edge">
<title>[root] aws_route_table.public (expand)&#45;&gt;[root] aws_vpc.mainVPC (expand)</title>
<path fill="none" stroke="black" d="M2199.7,-215.9C2164.97,-195.07 2102.45,-160.6 2044,-144 1892.69,-101.03 1708.13,-91.87 1603.32,-90.49"/>
<polygon fill="black" stroke="black" points="1603.16,-86.99 1593.12,-90.38 1603.08,-93.99 1603.16,-86.99"/>
</g>
<!-- [root] aws_route_table_association.private&#45;1 (expand) -->
<g id="node12" class="node">
<title>[root] aws_route_table_association.private&#45;1 (expand)</title>
<polygon fill="none" stroke="black" points="1398.5,-324 1111.5,-324 1111.5,-288 1398.5,-288 1398.5,-324"/>
<text text-anchor="middle" x="1255" y="-302.3" font-family="Times,serif" font-size="14.00">aws_route_table_association.private&#45;1</text>
</g>
<!-- [root] aws_route_table_association.private&#45;1 (expand)&#45;&gt;[root] aws_route_table.private (expand) -->
<g id="edge17" class="edge">
<title>[root] aws_route_table_association.private&#45;1 (expand)&#45;&gt;[root] aws_route_table.private (expand)</title>
<path fill="none" stroke="black" d="M1225.89,-287.88C1210.33,-278.72 1190.98,-267.34 1174.22,-257.48"/>
<polygon fill="black" stroke="black" points="1175.62,-254.24 1165.22,-252.19 1172.07,-260.28 1175.62,-254.24"/>
</g>
<!-- [root] aws_route_table_association.private&#45;1 (expand)&#45;&gt;[root] aws_subnet.private&#45;1 (expand) -->
<g id="edge18" class="edge">
<title>[root] aws_route_table_association.private&#45;1 (expand)&#45;&gt;[root] aws_subnet.private&#45;1 (expand)</title>
<path fill="none" stroke="black" d="M1274.28,-287.7C1283.92,-279.05 1295.73,-268.45 1306.23,-259.03"/>
<polygon fill="black" stroke="black" points="1308.84,-261.39 1313.94,-252.1 1304.16,-256.18 1308.84,-261.39"/>
</g>
<!-- [root] aws_route_table_association.private&#45;2 (expand) -->
<g id="node13" class="node">
<title>[root] aws_route_table_association.private&#45;2 (expand)</title>
<polygon fill="none" stroke="black" points="930.5,-324 643.5,-324 643.5,-288 930.5,-288 930.5,-324"/>
<text text-anchor="middle" x="787" y="-302.3" font-family="Times,serif" font-size="14.00">aws_route_table_association.private&#45;2</text>
</g>
<!-- [root] aws_route_table_association.private&#45;2 (expand)&#45;&gt;[root] aws_route_table.private (expand) -->
<g id="edge19" class="edge">
<title>[root] aws_route_table_association.private&#45;2 (expand)&#45;&gt;[root] aws_route_table.private (expand)</title>
<path fill="none" stroke="black" d="M871.93,-287.97C923.01,-277.72 988.15,-264.66 1040.95,-254.07"/>
<polygon fill="black" stroke="black" points="1041.88,-257.45 1050.99,-252.05 1040.5,-250.59 1041.88,-257.45"/>
</g>
<!-- [root] aws_subnet.private&#45;2 (expand) -->
<g id="node20" class="node">
<title>[root] aws_subnet.private&#45;2 (expand)</title>
<polygon fill="none" stroke="black" points="875.5,-180 706.5,-180 706.5,-144 875.5,-144 875.5,-180"/>
<text text-anchor="middle" x="791" y="-158.3" font-family="Times,serif" font-size="14.00">aws_subnet.private&#45;2</text>
</g>
<!-- [root] aws_route_table_association.private&#45;2 (expand)&#45;&gt;[root] aws_subnet.private&#45;2 (expand) -->
<g id="edge20" class="edge">
<title>[root] aws_route_table_association.private&#45;2 (expand)&#45;&gt;[root] aws_subnet.private&#45;2 (expand)</title>
<path fill="none" stroke="black" d="M787.48,-287.87C788.16,-263.67 789.42,-219.21 790.23,-190.39"/>
<polygon fill="black" stroke="black" points="793.73,-190.28 790.52,-180.19 786.74,-190.09 793.73,-190.28"/>
</g>
<!-- [root] aws_route_table_association.public&#45;1 (expand) -->
<g id="node14" class="node">
<title>[root] aws_route_table_association.public&#45;1 (expand)</title>
<polygon fill="none" stroke="black" points="2067,-324 1787,-324 1787,-288 2067,-288 2067,-324"/>
<text text-anchor="middle" x="1927" y="-302.3" font-family="Times,serif" font-size="14.00">aws_route_table_association.public&#45;1</text>
</g>
<!-- [root] aws_route_table_association.public&#45;1 (expand)&#45;&gt;[root] aws_route_table.public (expand) -->
<g id="edge21" class="edge">
<title>[root] aws_route_table_association.public&#45;1 (expand)&#45;&gt;[root] aws_route_table.public (expand)</title>
<path fill="none" stroke="black" d="M2000,-287.97C2043.55,-277.8 2098.98,-264.87 2144.16,-254.33"/>
<polygon fill="black" stroke="black" points="2144.99,-257.73 2153.93,-252.05 2143.39,-250.91 2144.99,-257.73"/>
</g>
<!-- [root] aws_route_table_association.public&#45;1 (expand)&#45;&gt;[root] aws_subnet.public&#45;1 (expand) -->
<g id="edge22" class="edge">
<title>[root] aws_route_table_association.public&#45;1 (expand)&#45;&gt;[root] aws_subnet.public&#45;1 (expand)</title>
<path fill="none" stroke="black" d="M1927.6,-287.87C1928.46,-263.67 1930.02,-219.21 1931.04,-190.39"/>
<polygon fill="black" stroke="black" points="1934.54,-190.31 1931.39,-180.19 1927.54,-190.06 1934.54,-190.31"/>
</g>
<!-- [root] aws_route_table_association.public&#45;2 (expand) -->
<g id="node15" class="node">
<title>[root] aws_route_table_association.public&#45;2 (expand)</title>
<polygon fill="none" stroke="black" points="2365,-324 2085,-324 2085,-288 2365,-288 2365,-324"/>
<text text-anchor="middle" x="2225" y="-302.3" font-family="Times,serif" font-size="14.00">aws_route_table_association.public&#45;2</text>
</g>
<!-- [root] aws_route_table_association.public&#45;2 (expand)&#45;&gt;[root] aws_route_table.public (expand) -->
<g id="edge23" class="edge">
<title>[root] aws_route_table_association.public&#45;2 (expand)&#45;&gt;[root] aws_route_table.public (expand)</title>
<path fill="none" stroke="black" d="M2225.49,-287.7C2225.71,-279.98 2225.98,-270.71 2226.23,-262.11"/>
<polygon fill="black" stroke="black" points="2229.72,-262.2 2226.51,-252.1 2222.73,-262 2229.72,-262.2"/>
</g>
<!-- [root] aws_subnet.public&#45;2 (expand) -->
<g id="node22" class="node">
<title>[root] aws_subnet.public&#45;2 (expand)</title>
<polygon fill="none" stroke="black" points="2118.5,-252 1957.5,-252 1957.5,-216 2118.5,-216 2118.5,-252"/>
<text text-anchor="middle" x="2038" y="-230.3" font-family="Times,serif" font-size="14.00">aws_subnet.public&#45;2</text>
</g>
<!-- [root] aws_route_table_association.public&#45;2 (expand)&#45;&gt;[root] aws_subnet.public&#45;2 (expand) -->
<g id="edge24" class="edge">
<title>[root] aws_route_table_association.public&#45;2 (expand)&#45;&gt;[root] aws_subnet.public&#45;2 (expand)</title>
<path fill="none" stroke="black" d="M2179.25,-287.88C2153.24,-278.14 2120.47,-265.87 2093.05,-255.61"/>
<polygon fill="black" stroke="black" points="2094.19,-252.3 2083.6,-252.07 2091.74,-258.85 2094.19,-252.3"/>
</g>
<!-- [root] aws_s3_bucket.mybucket (expand) -->
<g id="node16" class="node">
<title>[root] aws_s3_bucket.mybucket (expand)</title>
<polygon fill="none" stroke="black" points="625.5,-324 428.5,-324 428.5,-288 625.5,-288 625.5,-324"/>
<text text-anchor="middle" x="527" y="-302.3" font-family="Times,serif" font-size="14.00">aws_s3_bucket.mybucket</text>
</g>
<!-- [root] aws_s3_bucket.mybucket (expand)&#45;&gt;[root] provider[&quot;registry.terraform.io/hashicorp/aws&quot;] -->
<g id="edge25" class="edge">
<title>[root] aws_s3_bucket.mybucket (expand)&#45;&gt;[root] provider[&quot;registry.terraform.io/hashicorp/aws&quot;]</title>
<path fill="none" stroke="black" d="M527,-287.97C527,-240.29 527,-105.18 527,-46.63"/>
<polygon fill="black" stroke="black" points="530.5,-46.31 527,-36.31 523.5,-46.31 530.5,-46.31"/>
</g>
<!-- [root] aws_security_group.first&#45;security&#45;group (expand)&#45;&gt;[root] aws_vpc.mainVPC (expand) -->
<g id="edge26" class="edge">
<title>[root] aws_security_group.first&#45;security&#45;group (expand)&#45;&gt;[root] aws_vpc.mainVPC (expand)</title>
<path fill="none" stroke="black" d="M1643.88,-143.88C1621.36,-134.26 1593.08,-122.19 1569.23,-112.01"/>
<polygon fill="black" stroke="black" points="1570.56,-108.77 1559.99,-108.07 1567.81,-115.21 1570.56,-108.77"/>
</g>
<!-- [root] aws_security_group.second&#45;security&#45;group (expand)&#45;&gt;[root] aws_vpc.mainVPC (expand) -->
<g id="edge27" class="edge">
<title>[root] aws_security_group.second&#45;security&#45;group (expand)&#45;&gt;[root] aws_vpc.mainVPC (expand)</title>
<path fill="none" stroke="black" d="M1396.12,-143.88C1418.64,-134.26 1446.92,-122.19 1470.77,-112.01"/>
<polygon fill="black" stroke="black" points="1472.19,-115.21 1480.01,-108.07 1469.44,-108.77 1472.19,-115.21"/>
</g>
<!-- [root] aws_subnet.private&#45;1 (expand)&#45;&gt;[root] aws_vpc.mainVPC (expand) -->
<g id="edge28" class="edge">
<title>[root] aws_subnet.private&#45;1 (expand)&#45;&gt;[root] aws_vpc.mainVPC (expand)</title>
<path fill="none" stroke="black" d="M1259.21,-215.93C1209.96,-201.11 1158.96,-176.85 1187,-144 1218.48,-107.11 1348.71,-95.77 1436.67,-92.36"/>
<polygon fill="black" stroke="black" points="1437.04,-95.85 1446.91,-91.99 1436.79,-88.85 1437.04,-95.85"/>
</g>
<!-- [root] aws_subnet.private&#45;2 (expand)&#45;&gt;[root] aws_vpc.mainVPC (expand) -->
<g id="edge29" class="edge">
<title>[root] aws_subnet.private&#45;2 (expand)&#45;&gt;[root] aws_vpc.mainVPC (expand)</title>
<path fill="none" stroke="black" d="M875.69,-152.87C1016.43,-139.35 1296.79,-112.43 1436.64,-99"/>
<polygon fill="black" stroke="black" points="1437.25,-102.46 1446.87,-98.02 1436.58,-95.49 1437.25,-102.46"/>
</g>
<!-- [root] aws_subnet.public&#45;1 (expand)&#45;&gt;[root] aws_vpc.mainVPC (expand) -->
<g id="edge30" class="edge">
<title>[root] aws_subnet.public&#45;1 (expand)&#45;&gt;[root] aws_vpc.mainVPC (expand)</title>
<path fill="none" stroke="black" d="M1851.49,-145.52C1848.62,-145 1845.79,-144.49 1843,-144 1761.74,-129.58 1668.73,-114.46 1603.45,-104.08"/>
<polygon fill="black" stroke="black" points="1603.64,-100.57 1593.21,-102.45 1602.54,-107.48 1603.64,-100.57"/>
</g>
<!-- [root] aws_subnet.public&#45;2 (expand)&#45;&gt;[root] aws_vpc.mainVPC (expand) -->
<g id="edge31" class="edge">
<title>[root] aws_subnet.public&#45;2 (expand)&#45;&gt;[root] aws_vpc.mainVPC (expand)</title>
<path fill="none" stroke="black" d="M2040.41,-215.77C2042.19,-195.46 2041.54,-162.17 2022,-144 1992.02,-116.12 1738.29,-100.7 1603.47,-94.41"/>
<polygon fill="black" stroke="black" points="1603.33,-90.9 1593.18,-93.93 1603,-97.89 1603.33,-90.9"/>
</g>
<!-- [root] aws_vpc.mainVPC (expand)&#45;&gt;[root] provider[&quot;registry.terraform.io/hashicorp/aws&quot;] -->
<g id="edge32" class="edge">
<title>[root] aws_vpc.mainVPC (expand)&#45;&gt;[root] provider[&quot;registry.terraform.io/hashicorp/aws&quot;]</title>
<path fill="none" stroke="black" d="M1446.98,-83.85C1283.96,-72.36 887.8,-44.43 672.35,-29.25"/>
<polygon fill="black" stroke="black" points="672.45,-25.74 662.23,-28.53 671.96,-32.73 672.45,-25.74"/>
</g>
<!-- [root] meta.count&#45;boundary (EachMode fixup) -->
<g id="node25" class="node">
<title>[root] meta.count&#45;boundary (EachMode fixup)</title>
<ellipse fill="none" stroke="black" cx="994" cy="-378" rx="222.86" ry="18"/>
<text text-anchor="middle" x="994" y="-374.3" font-family="Times,serif" font-size="14.00">[root] meta.count&#45;boundary (EachMode fixup)</text>
</g>
<!-- [root] meta.count&#45;boundary (EachMode fixup)&#45;&gt;[root] aws_dynamodb_table.mytable (expand) -->
<g id="edge33" class="edge">
<title>[root] meta.count&#45;boundary (EachMode fixup)&#45;&gt;[root] aws_dynamodb_table.mytable (expand)</title>
<path fill="none" stroke="black" d="M811.79,-367.6C661.23,-359.03 441.67,-344.7 240.33,-324.1"/>
<polygon fill="black" stroke="black" points="240.45,-320.59 230.15,-323.05 239.74,-327.56 240.45,-320.59"/>
</g>
<!-- [root] meta.count&#45;boundary (EachMode fixup)&#45;&gt;[root] aws_instance.bastion (expand) -->
<g id="edge34" class="edge">
<title>[root] meta.count&#45;boundary (EachMode fixup)&#45;&gt;[root] aws_instance.bastion (expand)</title>
<path fill="none" stroke="black" d="M1148.62,-364.99C1291.74,-353.58 1495.33,-336.53 1590.82,-324.21"/>
<polygon fill="black" stroke="black" points="1591.37,-327.67 1600.82,-322.88 1590.45,-320.73 1591.37,-327.67"/>
</g>
<!-- [root] meta.count&#45;boundary (EachMode fixup)&#45;&gt;[root] aws_instance.private (expand) -->
<g id="edge35" class="edge">
<title>[root] meta.count&#45;boundary (EachMode fixup)&#45;&gt;[root] aws_instance.private (expand)</title>
<path fill="none" stroke="black" d="M1117.89,-362.96C1197.71,-353.48 1303.93,-340.06 1406.39,-324.21"/>
<polygon fill="black" stroke="black" points="1406.95,-327.67 1416.3,-322.67 1405.88,-320.75 1406.95,-327.67"/>
</g>
<!-- [root] meta.count&#45;boundary (EachMode fixup)&#45;&gt;[root] aws_key_pair.myKey (expand) -->
<g id="edge36" class="edge">
<title>[root] meta.count&#45;boundary (EachMode fixup)&#45;&gt;[root] aws_key_pair.myKey (expand)</title>
<path fill="none" stroke="black" d="M828.39,-365.91C715.94,-357.39 563.71,-343.91 420.66,-324.16"/>
<polygon fill="black" stroke="black" points="420.77,-320.64 410.38,-322.73 419.8,-327.58 420.77,-320.64"/>
</g>
<!-- [root] meta.count&#45;boundary (EachMode fixup)&#45;&gt;[root] aws_route.private (expand) -->
<g id="edge37" class="edge">
<title>[root] meta.count&#45;boundary (EachMode fixup)&#45;&gt;[root] aws_route.private (expand)</title>
<path fill="none" stroke="black" d="M1000.67,-359.7C1003.71,-351.81 1007.38,-342.3 1010.76,-333.55"/>
<polygon fill="black" stroke="black" points="1014.07,-334.69 1014.4,-324.1 1007.54,-332.17 1014.07,-334.69"/>
</g>
<!-- [root] meta.count&#45;boundary (EachMode fixup)&#45;&gt;[root] aws_route.public (expand) -->
<g id="edge38" class="edge">
<title>[root] meta.count&#45;boundary (EachMode fixup)&#45;&gt;[root] aws_route.public (expand)</title>
<path fill="none" stroke="black" d="M1146.82,-364.89C1173.21,-363.06 1200.39,-361.34 1226,-360 1732.42,-333.52 1865.63,-385.92 2373.06,-323.96"/>
<polygon fill="black" stroke="black" points="2373.72,-327.4 2383.21,-322.71 2372.86,-320.45 2373.72,-327.4"/>
</g>
<!-- [root] meta.count&#45;boundary (EachMode fixup)&#45;&gt;[root] aws_route_table_association.private&#45;1 (expand) -->
<g id="edge39" class="edge">
<title>[root] meta.count&#45;boundary (EachMode fixup)&#45;&gt;[root] aws_route_table_association.private&#45;1 (expand)</title>
<path fill="none" stroke="black" d="M1054.86,-360.68C1092.71,-350.52 1141.62,-337.41 1181.61,-326.68"/>
<polygon fill="black" stroke="black" points="1182.56,-330.05 1191.31,-324.08 1180.74,-323.29 1182.56,-330.05"/>
</g>
<!-- [root] meta.count&#45;boundary (EachMode fixup)&#45;&gt;[root] aws_route_table_association.private&#45;2 (expand) -->
<g id="edge40" class="edge">
<title>[root] meta.count&#45;boundary (EachMode fixup)&#45;&gt;[root] aws_route_table_association.private&#45;2 (expand)</title>
<path fill="none" stroke="black" d="M944.94,-360.41C915.71,-350.52 878.37,-337.9 847.34,-327.4"/>
<polygon fill="black" stroke="black" points="848.1,-323.97 837.5,-324.08 845.86,-330.6 848.1,-323.97"/>
</g>
<!-- [root] meta.count&#45;boundary (EachMode fixup)&#45;&gt;[root] aws_route_table_association.public&#45;1 (expand) -->
<g id="edge41" class="edge">
<title>[root] meta.count&#45;boundary (EachMode fixup)&#45;&gt;[root] aws_route_table_association.public&#45;1 (expand)</title>
<path fill="none" stroke="black" d="M1151.86,-365.26C1176.67,-363.47 1202.03,-361.66 1226,-360 1467.91,-343.25 1531.4,-345.87 1776.35,-324.12"/>
<polygon fill="black" stroke="black" points="1776.99,-327.58 1786.64,-323.21 1776.37,-320.61 1776.99,-327.58"/>
</g>
<!-- [root] meta.count&#45;boundary (EachMode fixup)&#45;&gt;[root] aws_route_table_association.public&#45;2 (expand) -->
<g id="edge42" class="edge">
<title>[root] meta.count&#45;boundary (EachMode fixup)&#45;&gt;[root] aws_route_table_association.public&#45;2 (expand)</title>
<path fill="none" stroke="black" d="M1148.7,-365C1174.51,-363.19 1201,-361.44 1226,-360 1600.17,-338.37 1697.33,-353.18 2074.55,-324.08"/>
<polygon fill="black" stroke="black" points="2074.95,-327.56 2084.65,-323.3 2074.41,-320.58 2074.95,-327.56"/>
</g>
<!-- [root] meta.count&#45;boundary (EachMode fixup)&#45;&gt;[root] aws_s3_bucket.mybucket (expand) -->
<g id="edge43" class="edge">
<title>[root] meta.count&#45;boundary (EachMode fixup)&#45;&gt;[root] aws_s3_bucket.mybucket (expand)</title>
<path fill="none" stroke="black" d="M890.37,-362.06C820.94,-351.98 727.2,-338.22 635.54,-324.23"/>
<polygon fill="black" stroke="black" points="635.94,-320.75 625.53,-322.7 634.88,-327.67 635.94,-320.75"/>
</g>
<!-- [root] provider[&quot;registry.terraform.io/hashicorp/aws&quot;] (close) -->
<g id="node26" class="node">
<title>[root] provider[&quot;registry.terraform.io/hashicorp/aws&quot;] (close)</title>
<ellipse fill="none" stroke="black" cx="1527" cy="-378" rx="291.65" ry="18"/>
<text text-anchor="middle" x="1527" y="-374.3" font-family="Times,serif" font-size="14.00">[root] provider[&quot;registry.terraform.io/hashicorp/aws&quot;] (close)</text>
</g>
<!-- [root] provider[&quot;registry.terraform.io/hashicorp/aws&quot;] (close)&#45;&gt;[root] aws_dynamodb_table.mytable (expand) -->
<g id="edge44" class="edge">
<title>[root] provider[&quot;registry.terraform.io/hashicorp/aws&quot;] (close)&#45;&gt;[root] aws_dynamodb_table.mytable (expand)</title>
<path fill="none" stroke="black" d="M1324.64,-365.02C1291.68,-363.22 1257.89,-361.48 1226,-360 790.83,-339.78 678.02,-361.52 240.21,-324.05"/>
<polygon fill="black" stroke="black" points="240.4,-320.55 230.13,-323.18 239.8,-327.53 240.4,-320.55"/>
</g>
<!-- [root] provider[&quot;registry.terraform.io/hashicorp/aws&quot;] (close)&#45;&gt;[root] aws_instance.bastion (expand) -->
<g id="edge45" class="edge">
<title>[root] provider[&quot;registry.terraform.io/hashicorp/aws&quot;] (close)&#45;&gt;[root] aws_instance.bastion (expand)</title>
<path fill="none" stroke="black" d="M1565.25,-360.05C1586.92,-350.45 1614.23,-338.35 1637.29,-328.14"/>
<polygon fill="black" stroke="black" points="1638.83,-331.28 1646.56,-324.03 1636,-324.88 1638.83,-331.28"/>
</g>
<!-- [root] provider[&quot;registry.terraform.io/hashicorp/aws&quot;] (close)&#45;&gt;[root] aws_instance.private (expand) -->
<g id="edge46" class="edge">
<title>[root] provider[&quot;registry.terraform.io/hashicorp/aws&quot;] (close)&#45;&gt;[root] aws_instance.private (expand)</title>
<path fill="none" stroke="black" d="M1520.33,-359.7C1517.29,-351.81 1513.62,-342.3 1510.24,-333.55"/>
<polygon fill="black" stroke="black" points="1513.46,-332.17 1506.6,-324.1 1506.93,-334.69 1513.46,-332.17"/>
</g>
<!-- [root] provider[&quot;registry.terraform.io/hashicorp/aws&quot;] (close)&#45;&gt;[root] aws_key_pair.myKey (expand) -->
<g id="edge47" class="edge">
<title>[root] provider[&quot;registry.terraform.io/hashicorp/aws&quot;] (close)&#45;&gt;[root] aws_key_pair.myKey (expand)</title>
<path fill="none" stroke="black" d="M1322.6,-365.13C1290.28,-363.35 1257.23,-361.58 1226,-360 870.76,-342.05 777.35,-364.99 420.45,-324.07"/>
<polygon fill="black" stroke="black" points="420.69,-320.57 410.36,-322.9 419.89,-327.53 420.69,-320.57"/>
</g>
<!-- [root] provider[&quot;registry.terraform.io/hashicorp/aws&quot;] (close)&#45;&gt;[root] aws_route.private (expand) -->
<g id="edge48" class="edge">
<title>[root] provider[&quot;registry.terraform.io/hashicorp/aws&quot;] (close)&#45;&gt;[root] aws_route.private (expand)</title>
<path fill="none" stroke="black" d="M1384.91,-362.26C1304.79,-353.23 1202.7,-340.53 1103.68,-324.22"/>
<polygon fill="black" stroke="black" points="1104.24,-320.76 1093.8,-322.58 1103.1,-327.67 1104.24,-320.76"/>
</g>
<!-- [root] provider[&quot;registry.terraform.io/hashicorp/aws&quot;] (close)&#45;&gt;[root] aws_route.public (expand) -->
<g id="edge49" class="edge">
<title>[root] provider[&quot;registry.terraform.io/hashicorp/aws&quot;] (close)&#45;&gt;[root] aws_route.public (expand)</title>
<path fill="none" stroke="black" d="M1794.13,-370.68C1958.6,-364.27 2173.74,-351.35 2373.11,-323.99"/>
<polygon fill="black" stroke="black" points="2373.77,-327.43 2383.2,-322.59 2372.81,-320.5 2373.77,-327.43"/>
</g>
<!-- [root] provider[&quot;registry.terraform.io/hashicorp/aws&quot;] (close)&#45;&gt;[root] aws_route_table_association.private&#45;1 (expand) -->
<g id="edge50" class="edge">
<title>[root] provider[&quot;registry.terraform.io/hashicorp/aws&quot;] (close)&#45;&gt;[root] aws_route_table_association.private&#45;1 (expand)</title>
<path fill="none" stroke="black" d="M1462.54,-360.41C1423.13,-350.27 1372.51,-337.24 1331.13,-326.59"/>
<polygon fill="black" stroke="black" points="1331.92,-323.18 1321.36,-324.08 1330.17,-329.96 1331.92,-323.18"/>
</g>
<!-- [root] provider[&quot;registry.terraform.io/hashicorp/aws&quot;] (close)&#45;&gt;[root] aws_route_table_association.private&#45;2 (expand) -->
<g id="edge51" class="edge">
<title>[root] provider[&quot;registry.terraform.io/hashicorp/aws&quot;] (close)&#45;&gt;[root] aws_route_table_association.private&#45;2 (expand)</title>
<path fill="none" stroke="black" d="M1362.48,-363.12C1247.18,-353.17 1089.18,-339.08 940.81,-324.17"/>
<polygon fill="black" stroke="black" points="940.9,-320.66 930.6,-323.14 940.2,-327.63 940.9,-320.66"/>
</g>
<!-- [root] provider[&quot;registry.terraform.io/hashicorp/aws&quot;] (close)&#45;&gt;[root] aws_route_table_association.public&#45;1 (expand) -->
<g id="edge52" class="edge">
<title>[root] provider[&quot;registry.terraform.io/hashicorp/aws&quot;] (close)&#45;&gt;[root] aws_route_table_association.public&#45;1 (expand)</title>
<path fill="none" stroke="black" d="M1619.02,-360.9C1678.91,-350.42 1757.25,-336.71 1819.93,-325.74"/>
<polygon fill="black" stroke="black" points="1820.6,-329.17 1829.85,-324 1819.39,-322.28 1820.6,-329.17"/>
</g>
<!-- [root] provider[&quot;registry.terraform.io/hashicorp/aws&quot;] (close)&#45;&gt;[root] aws_route_table_association.public&#45;2 (expand) -->
<g id="edge53" class="edge">
<title>[root] provider[&quot;registry.terraform.io/hashicorp/aws&quot;] (close)&#45;&gt;[root] aws_route_table_association.public&#45;2 (expand)</title>
<path fill="none" stroke="black" d="M1682.37,-362.73C1789.76,-352.69 1936.22,-338.65 2074.67,-324.13"/>
<polygon fill="black" stroke="black" points="2075.05,-327.61 2084.63,-323.08 2074.32,-320.65 2075.05,-327.61"/>
</g>
<!-- [root] provider[&quot;registry.terraform.io/hashicorp/aws&quot;] (close)&#45;&gt;[root] aws_s3_bucket.mybucket (expand) -->
<g id="edge54" class="edge">
<title>[root] provider[&quot;registry.terraform.io/hashicorp/aws&quot;] (close)&#45;&gt;[root] aws_s3_bucket.mybucket (expand)</title>
<path fill="none" stroke="black" d="M1320.62,-365.26C1081.32,-351.58 710.86,-330.16 635.76,-323.97"/>
<polygon fill="black" stroke="black" points="636.05,-320.48 625.77,-323.05 635.41,-327.45 636.05,-320.48"/>
</g>
<!-- [root] root -->
<g id="node27" class="node">
<title>[root] root</title>
<ellipse fill="none" stroke="black" cx="1260" cy="-450" rx="58.49" ry="18"/>
<text text-anchor="middle" x="1260" y="-446.3" font-family="Times,serif" font-size="14.00">[root] root</text>
</g>
<!-- [root] root&#45;&gt;[root] meta.count&#45;boundary (EachMode fixup) -->
<g id="edge55" class="edge">
<title>[root] root&#45;&gt;[root] meta.count&#45;boundary (EachMode fixup)</title>
<path fill="none" stroke="black" d="M1216.97,-437.68C1176.25,-426.96 1114.35,-410.67 1066.1,-397.97"/>
<polygon fill="black" stroke="black" points="1066.89,-394.56 1056.33,-395.4 1065.11,-401.33 1066.89,-394.56"/>
</g>
<!-- [root] root&#45;&gt;[root] provider[&quot;registry.terraform.io/hashicorp/aws&quot;] (close) -->
<g id="edge56" class="edge">
<title>[root] root&#45;&gt;[root] provider[&quot;registry.terraform.io/hashicorp/aws&quot;] (close)</title>
<path fill="none" stroke="black" d="M1302.9,-437.75C1343.51,-427.11 1405.31,-410.9 1453.73,-398.21"/>
<polygon fill="black" stroke="black" points="1454.75,-401.56 1463.54,-395.64 1452.98,-394.79 1454.75,-401.56"/>
</g>
</g>
</svg>
